<svg id="Vrstva_1" data-name="Vrstva 1" xmlns="http://www.w3.org/2000/svg" viewBox="0 0 662 312.61"><defs><style>.cls-1,.cls-2{fill:#18191f;}.cls-2{font-size:110.78px;font-family:WorldofWater-Regular, World of Water;}.cls-3{letter-spacing:-0.01em;}.cls-4{letter-spacing:0em;}</style></defs><path class="cls-1" d="M431.05,47.87c0,17.63-.25,25.63-.08,43.1.08,8.59.93,8.24-6.76,8.49-8.94.29-13.95,12.84-20.7,10.83-8.06-2.4-14.92-6.19-23.54-3-3.54,1.31-4.89-2.34-6.66-4.43C361.76,89.2,347.66,83,330,88.69c-4.45,1.43-6.44-.39-9.2-3.07-26.55-25.8-61.58-18.47-76.11,15.83-1.06,2.51-.86,5.83-5.49,4.75a28.83,28.83,0,0,0-10.72-.33c-2.22.34-4.34,1.35-7.16,2.6a2.6,2.6,0,0,1-3.65-2.37c0-22.94.2-34.38,0-57.32" transform="translate(-11 -47.87)"/><rect class="cls-1" x="166.6" y="98.83" width="293.49" height="69.51"/><rect class="cls-1" x="166.6" y="79.1" width="21.65" height="113"/><rect class="cls-1" x="438.44" y="77.09" width="21.65" height="113"/><text class="cls-2" transform="translate(0 286.14)">studio<tspan class="cls-3" x="312.94" y="0">r</tspan><tspan class="cls-4" x="355.37" y="0">osina.</tspan></text></svg>