<svg xmlns="http://www.w3.org/2000/svg" viewBox="0 0 652.25 78.87"><defs><style>.a{fill:#18191f;}</style></defs><path class="a" d="M20.21,224.71q3,.56,7.26.95c2.84.26,6.22.38,10.13.38q8,0,12.14-1.22c2.76-.81,4.15-2.17,4.15-4.09a3.26,3.26,0,0,0-1.11-2.55,8.83,8.83,0,0,0-3.65-1.66q-2.55-.68-5.43-1.17t-5.82-1.1q-2.94-.62-5.76-1.39a29.08,29.08,0,0,1-5.26-2,13.82,13.82,0,0,1-5-4.16q-1.77-2.49-1.77-7.14a11.65,11.65,0,0,1,2.33-7.2,18.89,18.89,0,0,1,6.37-5.27,34.75,34.75,0,0,1,9.58-3.26,60.23,60.23,0,0,1,11.85-1.11c2.29,0,4.55.09,6.76.28s4.47.46,6.76.83v12A57,57,0,0,0,57.1,195c-2.51-.18-5.5-.28-9-.28a50,50,0,0,0-9.53.72q-3.54.72-3.54,3.6a2.29,2.29,0,0,0,1.11,2.11,16.7,16.7,0,0,0,4.65,1.33q5.31.88,10.24,1.94a78.78,78.78,0,0,1,9.14,2.49,11.34,11.34,0,0,1,6.32,5,14.62,14.62,0,0,1,2,7.37q0,6.32-3,10.08a19.8,19.8,0,0,1-7.7,5.76,35.63,35.63,0,0,1-10.14,2.6,94.58,94.58,0,0,1-10.25.61q-5.76,0-10-.33a65.09,65.09,0,0,1-7.15-.89Z" transform="translate(-20.1 -159.46)"/><path class="a" d="M107,235.79a15.41,15.41,0,0,1-3.65.89,35.73,35.73,0,0,1-5,.33,25.13,25.13,0,0,1-8.7-1.44,19,19,0,0,1-6.75-4.15,18.28,18.28,0,0,1-4.38-6.71,25.32,25.32,0,0,1-1.55-9.19v-47.3H92v15.84h13.29v11.63H92v19.83a9.51,9.51,0,0,0,2,6.26,7.09,7.09,0,0,0,5.81,2.49,19.88,19.88,0,0,0,3.93-.33,23.17,23.17,0,0,0,3.16-.89Z" transform="translate(-20.1 -159.46)"/><path class="a" d="M147.83,184.06h14.84V219a19.59,19.59,0,0,1-1.77,8.64,16.34,16.34,0,0,1-4.93,6,21.49,21.49,0,0,1-7.59,3.55,41.51,41.51,0,0,1-19.49,0,21.49,21.49,0,0,1-7.59-3.55,16.34,16.34,0,0,1-4.93-6A19.59,19.59,0,0,1,114.6,219V184.06h15.06V217.4q0,5.1,2.11,7.26t7,2.16q4.88,0,7-2.16t2.11-7.26Z" transform="translate(-20.1 -159.46)"/><path class="a" d="M212.85,159.46h15.07v51.18a32.16,32.16,0,0,1-2,11.69,24,24,0,0,1-5.65,8.7,24.79,24.79,0,0,1-8.81,5.43,33,33,0,0,1-11.35,1.88,25.47,25.47,0,0,1-10.86-2.27,24,24,0,0,1-8.25-6.21,27.66,27.66,0,0,1-5.21-9.36A36.48,36.48,0,0,1,174,208.76,30.21,30.21,0,0,1,175.8,198a23.36,23.36,0,0,1,5.15-8.2,22.74,22.74,0,0,1,7.92-5.2,27.47,27.47,0,0,1,10.25-1.83,24.7,24.7,0,0,1,7.59,1.16,15.14,15.14,0,0,1,6.14,3.71Zm-11.52,67a11.09,11.09,0,0,0,9-4q3.31-4,3.32-12t-3.32-12a12.09,12.09,0,0,0-17.95,0q-3.31,4-3.32,12t3.32,12A11.08,11.08,0,0,0,201.33,226.49Z" transform="translate(-20.1 -159.46)"/><path class="a" d="M249.41,177.85a7.63,7.63,0,0,1-6.09-2.71,9.8,9.8,0,0,1-2.33-6.59,9.35,9.35,0,0,1,2.33-6.48,7.9,7.9,0,0,1,6.2-2.61,7.77,7.77,0,0,1,6.09,2.61,9.35,9.35,0,0,1,2.33,6.48,9.8,9.8,0,0,1-2.33,6.59A7.75,7.75,0,0,1,249.41,177.85ZM241.77,237V184.06h15.06V237Z" transform="translate(-20.1 -159.46)"/><path class="a" d="M297.27,238.34a29.32,29.32,0,0,1-11.08-2.05,26.1,26.1,0,0,1-8.81-5.76,26.68,26.68,0,0,1-5.81-8.81,30.73,30.73,0,0,1,0-22.38,26.74,26.74,0,0,1,5.81-8.8,26,26,0,0,1,8.81-5.76,30.94,30.94,0,0,1,22.15,0,26,26,0,0,1,8.81,5.76,26.92,26.92,0,0,1,5.82,8.8,30.86,30.86,0,0,1,0,22.38,26.86,26.86,0,0,1-5.82,8.81,26.1,26.1,0,0,1-8.81,5.76A29.31,29.31,0,0,1,297.27,238.34Zm0-11.85a11.64,11.64,0,0,0,9.3-4q3.44-4,3.44-12t-3.44-12a12.85,12.85,0,0,0-18.61,0q-3.43,4-3.43,12t3.43,12A11.65,11.65,0,0,0,297.27,226.49Z" transform="translate(-20.1 -159.46)"/><path class="a" d="M336.26,237V206.66q0-11.41,7-17.67t19.39-6.26c1.17,0,2.21,0,3.1.05s1.67.1,2.38.17,1.38.17,2.05.28,1.4.2,2.21.27v11.75c-1.33-.23-2.73-.41-4.21-.56a39.49,39.49,0,0,0-4-.22q-6,0-9.42,2.94t-3.44,8.69V237Z" transform="translate(-20.1 -159.46)"/><path class="a" d="M405.05,238.34A29.36,29.36,0,0,1,394,236.29a26.15,26.15,0,0,1-8.8-5.76,26.55,26.55,0,0,1-5.82-8.81,30.86,30.86,0,0,1,0-22.38,26.61,26.61,0,0,1,5.82-8.8,26,26,0,0,1,8.8-5.76,31,31,0,0,1,22.16,0,26,26,0,0,1,8.81,5.76,26.74,26.74,0,0,1,5.81,8.8,30.73,30.73,0,0,1,0,22.38,26.68,26.68,0,0,1-5.81,8.81,26.2,26.2,0,0,1-8.81,5.76A29.36,29.36,0,0,1,405.05,238.34Zm0-11.85a11.66,11.66,0,0,0,9.31-4q3.43-4,3.43-12t-3.43-12a12.85,12.85,0,0,0-18.61,0q-3.44,4-3.44,12t3.44,12A11.63,11.63,0,0,0,405.05,226.49Z" transform="translate(-20.1 -159.46)"/><path class="a" d="M440.94,224.71q3,.56,7.26.95c2.84.26,6.22.38,10.14.38q8,0,12.13-1.22t4.15-4.09a3.26,3.26,0,0,0-1.11-2.55,8.83,8.83,0,0,0-3.65-1.66q-2.55-.68-5.43-1.17t-5.82-1.1q-2.92-.62-5.76-1.39a29.08,29.08,0,0,1-5.26-2,13.7,13.7,0,0,1-5-4.16q-1.78-2.49-1.78-7.14a11.65,11.65,0,0,1,2.33-7.2,18.89,18.89,0,0,1,6.37-5.27,34.75,34.75,0,0,1,9.58-3.26A60.23,60.23,0,0,1,471,182.73c2.29,0,4.55.09,6.76.28s4.47.46,6.76.83v12a57,57,0,0,0-6.65-.83c-2.51-.18-5.5-.28-9-.28a50,50,0,0,0-9.53.72q-3.54.72-3.54,3.6a2.29,2.29,0,0,0,1.11,2.11,16.7,16.7,0,0,0,4.65,1.33q5.31.88,10.25,1.94a79.15,79.15,0,0,1,9.13,2.49,11.31,11.31,0,0,1,6.32,5,14.62,14.62,0,0,1,2,7.37q0,6.32-3,10.08a19.73,19.73,0,0,1-7.7,5.76,35.63,35.63,0,0,1-10.14,2.6,94.58,94.58,0,0,1-10.25.61q-5.76,0-10-.33a65.4,65.4,0,0,1-7.15-.89Z" transform="translate(-20.1 -159.46)"/><path class="a" d="M506.86,177.85a7.63,7.63,0,0,1-6.1-2.71,9.79,9.79,0,0,1-2.32-6.59,9.35,9.35,0,0,1,2.32-6.48,7.91,7.91,0,0,1,6.21-2.61,7.77,7.77,0,0,1,6.09,2.61,9.35,9.35,0,0,1,2.33,6.48,9.8,9.8,0,0,1-2.33,6.59A7.75,7.75,0,0,1,506.86,177.85ZM499.21,237V184.06h15.07V237Z" transform="translate(-20.1 -159.46)"/><path class="a" d="M562,237V203.67q0-5.1-2.21-7.26t-7.2-2.16q-5,0-7.2,2.16t-2.22,7.26V237H528.35v-34.9q0-10,6.53-14.67t17.84-4.71q11.29,0,17.83,4.71t6.54,14.67V237Z" transform="translate(-20.1 -159.46)"/><path class="a" d="M642.34,210.64a35.68,35.68,0,0,1-1.89,12.19,22.66,22.66,0,0,1-5.37,8.64,22.18,22.18,0,0,1-8.42,5.15,33.23,33.23,0,0,1-11,1.72,28,28,0,0,1-11.52-2.27,24.69,24.69,0,0,1-8.59-6.21,26.9,26.9,0,0,1-5.32-9.36,36.75,36.75,0,0,1-1.82-11.74,30.43,30.43,0,0,1,1.82-10.8,23.38,23.38,0,0,1,5.16-8.2,22.56,22.56,0,0,1,7.92-5.2,27.46,27.46,0,0,1,10.24-1.83A19.64,19.64,0,0,1,629,189.26v-5.2h13.3Zm-26.59,15.85a11.05,11.05,0,0,0,9-4q3.33-4,3.33-12t-3.33-12a12.08,12.08,0,0,0-17.94,0q-3.33,4-3.33,12t3.33,12A11.05,11.05,0,0,0,615.75,226.49Z" transform="translate(-20.1 -159.46)"/><path class="a" d="M663.83,238.34a7.66,7.66,0,0,1-6.1-2.71,9.8,9.8,0,0,1-2.32-6.6,9.38,9.38,0,0,1,2.32-6.48,7.93,7.93,0,0,1,6.21-2.6,7.79,7.79,0,0,1,6.09,2.6,9.39,9.39,0,0,1,2.33,6.48,9.8,9.8,0,0,1-2.33,6.6A7.78,7.78,0,0,1,663.83,238.34Z" transform="translate(-20.1 -159.46)"/></svg>