<svg id="Vrstva_1" data-name="Vrstva 1" xmlns="http://www.w3.org/2000/svg" viewBox="0 0 241.12 157.82"><defs><style>.cls-1{fill:#fff;}</style></defs><path class="cls-1" d="M215.64,49.43c0,14.48-.2,21.06-.06,35.41.06,7,.76,6.77-5.56,7-7.34.24-11.45,10.55-17,8.9-6.62-2-12.26-5.09-19.34-2.46-2.91,1.07-4-1.93-5.47-3.65-9.49-11.22-21.08-16.3-35.6-11.63-3.66,1.17-5.29-.33-7.56-2.53-21.81-21.2-50.59-15.17-62.53,13-.87,2.06-.71,4.79-4.51,3.9a23.73,23.73,0,0,0-8.81-.27,24,24,0,0,0-5.88,2.14,2.14,2.14,0,0,1-3-2c0-18.85.16-28.25,0-47.1" transform="translate(-7.42 -49.43)"/><rect class="cls-1" y="81.2" width="241.12" height="57.11"/><rect class="cls-1" y="64.98" width="17.78" height="92.84"/><rect class="cls-1" x="223.34" y="63.33" width="17.78" height="92.84"/></svg>